<mxfile host="Electron" modified="2024-01-14T02:27:34.395Z" agent="Mozilla/5.0 (Windows NT 10.0; Win64; x64) AppleWebKit/537.36 (KHTML, like Gecko) draw.io/22.0.3 Chrome/114.0.5735.289 Electron/25.8.4 Safari/537.36" etag="RW0Yefn1AC3DFMZGTLv4" version="22.0.3" type="device">
  <diagram name="Page-1" id="MCGXA32kqJQnhjfVeyyt">
    <mxGraphModel dx="1100" dy="2063" grid="0" gridSize="10" guides="1" tooltips="1" connect="1" arrows="1" fold="1" page="1" pageScale="1" pageWidth="827" pageHeight="1169" math="0" shadow="0">
      <root>
        <mxCell id="0" />
        <mxCell id="1" parent="0" />
        <mxCell id="oQkXrO-AA8s-s7fr9Je5-1" value="Team" style="whiteSpace=wrap;html=1;align=center;" vertex="1" parent="1">
          <mxGeometry x="110" y="-40" width="100" height="40" as="geometry" />
        </mxCell>
        <mxCell id="oQkXrO-AA8s-s7fr9Je5-2" value="Player" style="whiteSpace=wrap;html=1;align=center;" vertex="1" parent="1">
          <mxGeometry x="110" y="180" width="100" height="40" as="geometry" />
        </mxCell>
        <mxCell id="oQkXrO-AA8s-s7fr9Je5-3" value="Match" style="whiteSpace=wrap;html=1;align=center;" vertex="1" parent="1">
          <mxGeometry x="110" y="420" width="100" height="40" as="geometry" />
        </mxCell>
        <mxCell id="oQkXrO-AA8s-s7fr9Je5-4" value="Name" style="ellipse;whiteSpace=wrap;html=1;align=center;fontStyle=4;" vertex="1" parent="1">
          <mxGeometry x="270" y="-40" width="100" height="40" as="geometry" />
        </mxCell>
        <mxCell id="oQkXrO-AA8s-s7fr9Je5-6" value="Season" style="ellipse;whiteSpace=wrap;html=1;align=center;" vertex="1" parent="1">
          <mxGeometry x="270" y="70" width="100" height="40" as="geometry" />
        </mxCell>
        <mxCell id="oQkXrO-AA8s-s7fr9Je5-8" value="" style="endArrow=none;html=1;rounded=0;exitX=0.5;exitY=0;exitDx=0;exitDy=0;entryX=0.5;entryY=1;entryDx=0;entryDy=0;" edge="1" parent="1" source="oQkXrO-AA8s-s7fr9Je5-2" target="oQkXrO-AA8s-s7fr9Je5-16">
          <mxGeometry relative="1" as="geometry">
            <mxPoint x="330" y="360" as="sourcePoint" />
            <mxPoint x="160" y="270" as="targetPoint" />
          </mxGeometry>
        </mxCell>
        <mxCell id="oQkXrO-AA8s-s7fr9Je5-11" value="" style="endArrow=none;html=1;rounded=0;exitX=0.5;exitY=0;exitDx=0;exitDy=0;" edge="1" parent="1" source="oQkXrO-AA8s-s7fr9Je5-16" target="oQkXrO-AA8s-s7fr9Je5-1">
          <mxGeometry relative="1" as="geometry">
            <mxPoint x="160" y="120" as="sourcePoint" />
            <mxPoint x="490" y="150" as="targetPoint" />
          </mxGeometry>
        </mxCell>
        <mxCell id="oQkXrO-AA8s-s7fr9Je5-13" value="" style="endArrow=none;html=1;rounded=0;exitX=1;exitY=0.5;exitDx=0;exitDy=0;entryX=0;entryY=0.5;entryDx=0;entryDy=0;" edge="1" parent="1" source="oQkXrO-AA8s-s7fr9Je5-16" target="oQkXrO-AA8s-s7fr9Je5-6">
          <mxGeometry relative="1" as="geometry">
            <mxPoint x="220" y="90" as="sourcePoint" />
            <mxPoint x="490" y="150" as="targetPoint" />
          </mxGeometry>
        </mxCell>
        <mxCell id="oQkXrO-AA8s-s7fr9Je5-14" value="" style="endArrow=none;html=1;rounded=0;exitX=1;exitY=0.5;exitDx=0;exitDy=0;entryX=0;entryY=0.5;entryDx=0;entryDy=0;" edge="1" parent="1" source="oQkXrO-AA8s-s7fr9Je5-1" target="oQkXrO-AA8s-s7fr9Je5-4">
          <mxGeometry relative="1" as="geometry">
            <mxPoint x="330" y="-70" as="sourcePoint" />
            <mxPoint x="490" y="-70" as="targetPoint" />
          </mxGeometry>
        </mxCell>
        <mxCell id="oQkXrO-AA8s-s7fr9Je5-15" value="Join" style="shape=rhombus;perimeter=rhombusPerimeter;whiteSpace=wrap;html=1;align=center;" vertex="1" parent="1">
          <mxGeometry x="100" y="290" width="120" height="60" as="geometry" />
        </mxCell>
        <mxCell id="oQkXrO-AA8s-s7fr9Je5-16" value="Join" style="shape=rhombus;perimeter=rhombusPerimeter;whiteSpace=wrap;html=1;align=center;" vertex="1" parent="1">
          <mxGeometry x="100" y="60" width="120" height="60" as="geometry" />
        </mxCell>
        <mxCell id="oQkXrO-AA8s-s7fr9Je5-20" value="" style="endArrow=none;html=1;rounded=0;entryX=0.5;entryY=1;entryDx=0;entryDy=0;exitX=0.5;exitY=0;exitDx=0;exitDy=0;" edge="1" parent="1" source="oQkXrO-AA8s-s7fr9Je5-15" target="oQkXrO-AA8s-s7fr9Je5-2">
          <mxGeometry width="50" height="50" relative="1" as="geometry">
            <mxPoint x="390" y="380" as="sourcePoint" />
            <mxPoint x="440" y="330" as="targetPoint" />
            <Array as="points" />
          </mxGeometry>
        </mxCell>
        <mxCell id="oQkXrO-AA8s-s7fr9Je5-22" value="Name" style="ellipse;whiteSpace=wrap;html=1;align=center;fontStyle=4;" vertex="1" parent="1">
          <mxGeometry x="270" y="180" width="100" height="40" as="geometry" />
        </mxCell>
        <mxCell id="oQkXrO-AA8s-s7fr9Je5-23" value="" style="endArrow=none;html=1;rounded=0;entryX=0;entryY=0.5;entryDx=0;entryDy=0;exitX=1;exitY=0.5;exitDx=0;exitDy=0;" edge="1" parent="1" source="oQkXrO-AA8s-s7fr9Je5-2" target="oQkXrO-AA8s-s7fr9Je5-22">
          <mxGeometry width="50" height="50" relative="1" as="geometry">
            <mxPoint x="390" y="380" as="sourcePoint" />
            <mxPoint x="440" y="330" as="targetPoint" />
          </mxGeometry>
        </mxCell>
        <mxCell id="oQkXrO-AA8s-s7fr9Je5-25" value="Point" style="ellipse;whiteSpace=wrap;html=1;align=center;" vertex="1" parent="1">
          <mxGeometry x="270" y="340" width="100" height="40" as="geometry" />
        </mxCell>
        <mxCell id="oQkXrO-AA8s-s7fr9Je5-26" value="Rank" style="ellipse;whiteSpace=wrap;html=1;align=center;dashed=1;" vertex="1" parent="1">
          <mxGeometry x="430" y="340" width="100" height="40" as="geometry" />
        </mxCell>
        <mxCell id="oQkXrO-AA8s-s7fr9Je5-27" value="pt" style="ellipse;whiteSpace=wrap;html=1;align=center;dashed=1;" vertex="1" parent="1">
          <mxGeometry x="590" y="340" width="100" height="40" as="geometry" />
        </mxCell>
        <mxCell id="oQkXrO-AA8s-s7fr9Je5-28" value="" style="endArrow=none;html=1;rounded=0;exitX=1;exitY=0.5;exitDx=0;exitDy=0;entryX=0.5;entryY=0;entryDx=0;entryDy=0;" edge="1" parent="1" source="oQkXrO-AA8s-s7fr9Je5-15" target="oQkXrO-AA8s-s7fr9Je5-25">
          <mxGeometry relative="1" as="geometry">
            <mxPoint x="330" y="260" as="sourcePoint" />
            <mxPoint x="490" y="260" as="targetPoint" />
            <Array as="points">
              <mxPoint x="320" y="320" />
            </Array>
          </mxGeometry>
        </mxCell>
        <mxCell id="oQkXrO-AA8s-s7fr9Je5-29" value="" style="endArrow=none;html=1;rounded=0;exitX=1;exitY=0.5;exitDx=0;exitDy=0;entryX=0.5;entryY=0;entryDx=0;entryDy=0;" edge="1" parent="1" source="oQkXrO-AA8s-s7fr9Je5-15" target="oQkXrO-AA8s-s7fr9Je5-26">
          <mxGeometry relative="1" as="geometry">
            <mxPoint x="330" y="260" as="sourcePoint" />
            <mxPoint x="490" y="260" as="targetPoint" />
            <Array as="points">
              <mxPoint x="480" y="320" />
            </Array>
          </mxGeometry>
        </mxCell>
        <mxCell id="oQkXrO-AA8s-s7fr9Je5-30" value="" style="endArrow=none;html=1;rounded=0;exitX=1;exitY=0.5;exitDx=0;exitDy=0;entryX=0.5;entryY=0;entryDx=0;entryDy=0;" edge="1" parent="1" source="oQkXrO-AA8s-s7fr9Je5-15" target="oQkXrO-AA8s-s7fr9Je5-27">
          <mxGeometry relative="1" as="geometry">
            <mxPoint x="330" y="260" as="sourcePoint" />
            <mxPoint x="490" y="260" as="targetPoint" />
            <Array as="points">
              <mxPoint x="640" y="320" />
            </Array>
          </mxGeometry>
        </mxCell>
        <mxCell id="oQkXrO-AA8s-s7fr9Je5-31" value="Date" style="ellipse;whiteSpace=wrap;html=1;align=center;fontStyle=4;" vertex="1" parent="1">
          <mxGeometry x="270" y="460" width="100" height="40" as="geometry" />
        </mxCell>
        <mxCell id="oQkXrO-AA8s-s7fr9Je5-32" value="No" style="ellipse;whiteSpace=wrap;html=1;align=center;fontStyle=4;" vertex="1" parent="1">
          <mxGeometry x="430" y="460" width="100" height="40" as="geometry" />
        </mxCell>
        <mxCell id="oQkXrO-AA8s-s7fr9Je5-33" value="" style="endArrow=none;html=1;rounded=0;exitX=1;exitY=0.5;exitDx=0;exitDy=0;entryX=0.5;entryY=0;entryDx=0;entryDy=0;" edge="1" parent="1" source="oQkXrO-AA8s-s7fr9Je5-3" target="oQkXrO-AA8s-s7fr9Je5-31">
          <mxGeometry relative="1" as="geometry">
            <mxPoint x="330" y="260" as="sourcePoint" />
            <mxPoint x="490" y="260" as="targetPoint" />
            <Array as="points">
              <mxPoint x="320" y="440" />
            </Array>
          </mxGeometry>
        </mxCell>
        <mxCell id="oQkXrO-AA8s-s7fr9Je5-34" value="" style="endArrow=none;html=1;rounded=0;exitX=1;exitY=0.5;exitDx=0;exitDy=0;entryX=0.5;entryY=0;entryDx=0;entryDy=0;" edge="1" parent="1" source="oQkXrO-AA8s-s7fr9Je5-3" target="oQkXrO-AA8s-s7fr9Je5-32">
          <mxGeometry relative="1" as="geometry">
            <mxPoint x="330" y="260" as="sourcePoint" />
            <mxPoint x="490" y="260" as="targetPoint" />
            <Array as="points">
              <mxPoint x="480" y="440" />
            </Array>
          </mxGeometry>
        </mxCell>
        <mxCell id="oQkXrO-AA8s-s7fr9Je5-35" value="" style="endArrow=none;html=1;rounded=0;exitX=0.5;exitY=1;exitDx=0;exitDy=0;entryX=0.5;entryY=0;entryDx=0;entryDy=0;" edge="1" parent="1" source="oQkXrO-AA8s-s7fr9Je5-15" target="oQkXrO-AA8s-s7fr9Je5-3">
          <mxGeometry relative="1" as="geometry">
            <mxPoint x="330" y="260" as="sourcePoint" />
            <mxPoint x="490" y="260" as="targetPoint" />
          </mxGeometry>
        </mxCell>
        <mxCell id="oQkXrO-AA8s-s7fr9Je5-36" value="4" style="resizable=0;html=1;whiteSpace=wrap;align=right;verticalAlign=bottom;" connectable="0" vertex="1" parent="oQkXrO-AA8s-s7fr9Je5-35">
          <mxGeometry x="1" relative="1" as="geometry" />
        </mxCell>
        <mxCell id="oQkXrO-AA8s-s7fr9Je5-37" value="Round" style="ellipse;whiteSpace=wrap;html=1;align=center;" vertex="1" parent="1">
          <mxGeometry x="590" y="460" width="100" height="40" as="geometry" />
        </mxCell>
        <mxCell id="oQkXrO-AA8s-s7fr9Je5-38" value="" style="endArrow=none;html=1;rounded=0;exitX=1;exitY=0.5;exitDx=0;exitDy=0;entryX=0.5;entryY=0;entryDx=0;entryDy=0;" edge="1" parent="1" source="oQkXrO-AA8s-s7fr9Je5-3" target="oQkXrO-AA8s-s7fr9Je5-37">
          <mxGeometry relative="1" as="geometry">
            <mxPoint x="330" y="260" as="sourcePoint" />
            <mxPoint x="490" y="260" as="targetPoint" />
            <Array as="points">
              <mxPoint x="640" y="440" />
            </Array>
          </mxGeometry>
        </mxCell>
      </root>
    </mxGraphModel>
  </diagram>
</mxfile>
